<?xml version="1.0" standalone="no"?>
<!DOCTYPE svg PUBLIC "-//W3C//DTD SVG 20010904//EN"
 "http://www.w3.org/TR/2001/REC-SVG-20010904/DTD/svg10.dtd">
<svg version="1.0" xmlns="http://www.w3.org/2000/svg"
 width="300.000000pt" height="300.000000pt" viewBox="0 0 300.000000 300.000000"
 preserveAspectRatio="xMidYMid meet">
<metadata>
Created by potrace 1.10, written by Peter Selinger 2001-2011
</metadata>
<g transform="translate(0.000000,300.000000) scale(0.100000,-0.100000)"
fill="#000000" stroke="none">
<path d="M350 1598 l0 -228 45 0 45 0 0 105 c0 80 3 103 13 99 6 -3 39 -43 72
-90 80 -113 83 -116 143 -112 l51 3 -90 118 c-61 80 -87 123 -81 130 5 7 41
52 81 102 39 49 71 93 71 96 0 4 -23 6 -50 6 -56 -1 -48 7 -154 -141 l-56 -78
0 108 0 109 -45 0 -45 0 0 -227z m69 -15 c-17 -20 -29 -16 -29 10 0 32 12 42
27 21 9 -13 10 -21 2 -31z m94 7 c3 -11 2 -20 -3 -20 -14 0 -32 29 -25 40 9
14 21 5 28 -20z"/>
<path d="M752 1628 c3 -188 5 -206 25 -245 32 -59 75 -88 183 -123 78 -26 292
-80 315 -80 3 0 5 17 3 38 -3 37 -4 37 -63 51 -33 7 -107 26 -165 43 -207 58
-220 79 -217 361 l2 157 -43 0 -43 0 3 -202z"/>
<path d="M990 1688 c-62 -32 -93 -91 -88 -171 7 -99 62 -150 160 -151 98 -1
118 8 118 49 0 39 2 38 -59 24 -51 -11 -106 2 -121 31 -21 40 -14 42 95 38
l105 -4 0 46 c0 122 -106 191 -210 138z m110 -68 c11 -11 20 -28 20 -37 0 -15
-10 -18 -65 -18 -68 0 -72 3 -54 38 23 43 66 50 99 17z m-126 -62 c9 -18 9
-29 -2 -51 -18 -35 -25 -28 -28 26 -3 63 7 71 30 25z"/>
<path d="M1892 1695 c-18 -8 -35 -21 -38 -30 -5 -12 -11 -11 -36 10 -38 32
-104 34 -142 4 l-26 -20 0 20 c0 18 -6 21 -40 21 l-40 0 0 -165 0 -165 45 0
45 0 0 113 c0 125 9 147 61 147 44 0 49 -16 49 -142 l0 -118 45 0 45 0 0 113
c0 125 9 147 61 147 44 0 49 -16 49 -142 l0 -118 45 0 45 0 0 120 c0 125 -8
157 -46 192 -28 24 -83 30 -122 13z m-237 -45 c11 0 11 -5 -2 -30 -8 -17 -15
-50 -16 -75 -1 -28 -7 -45 -14 -45 -7 0 -10 -7 -7 -15 4 -8 2 -15 -4 -15 -12
0 -21 121 -10 135 11 13 10 37 -2 30 -5 -3 -10 1 -10 10 0 9 4 14 9 11 5 -3
12 2 16 12 6 16 7 16 16 0 6 -10 16 -18 24 -18z m141 3 c-3 9 -1 17 4 17 6 0
10 -7 10 -15 0 -8 6 -15 14 -15 20 0 22 -22 15 -135 -6 -103 -8 -100 -15 19
-4 90 -14 98 -14 12 0 -42 -4 -65 -10 -61 -5 3 -9 36 -9 73 1 53 -2 69 -18 81
-10 9 -17 24 -15 34 3 15 6 15 24 -5 15 -17 18 -19 14 -5z m178 16 c-4 -8 1
-9 17 -4 17 4 20 3 10 -3 -16 -12 -6 -33 13 -26 20 8 26 -28 25 -146 0 -80 -3
-99 -10 -80 -6 14 -9 38 -9 55 4 66 0 145 -7 145 -5 0 -7 -49 -6 -110 1 -66
-2 -110 -8 -110 -6 0 -9 43 -8 104 1 116 -7 141 -51 151 -37 8 -40 24 -4 17
19 -3 25 -1 20 7 -4 6 -1 11 9 11 9 0 13 -5 9 -11z"/>
<path d="M2217 1696 c-50 -18 -67 -33 -88 -81 -49 -107 6 -232 111 -250 49 -8
120 1 144 18 13 9 16 20 11 40 -8 29 -19 33 -62 16 -36 -13 -89 -3 -114 22
-38 38 -26 44 86 41 l105 -4 0 54 c0 114 -89 180 -193 144z m136 -44 c10 -9
17 -29 17 -49 0 -18 4 -33 8 -33 13 0 11 -34 -2 -42 -6 -4 -27 -8 -46 -8 l-35
0 28 24 c35 30 34 58 -4 90 -31 27 -49 30 -84 17 -24 -10 -47 -3 -39 11 10 15
137 7 157 -10z m-180 -24 c-5 -23 -5 -23 10 -3 19 25 33 14 16 -13 -17 -27 -4
-72 21 -72 10 0 22 -5 25 -10 4 -6 3 -10 -2 -9 -4 1 -18 1 -31 0 -20 -1 -23
-6 -20 -33 2 -23 12 -38 36 -54 27 -19 30 -23 15 -28 -10 -3 -1 -3 20 0 26 4
37 2 32 -5 -11 -18 -63 -12 -100 12 -63 40 -80 130 -39 209 18 34 24 36 17 6z
m122 6 c8 -4 22 -19 30 -34 l15 -28 -70 -4 c-78 -3 -87 6 -45 47 25 26 41 30
70 19z"/>
<path d="M2603 1695 c-17 -7 -35 -24 -39 -37 -8 -22 -8 -22 -13 7 -5 26 -11
30 -44 33 l-37 3 0 -165 0 -166 45 0 45 0 0 108 c0 122 8 141 57 145 32 2 33
4 33 45 0 46 -1 47 -47 27z m-54 -87 c-5 -9 -9 -54 -10 -100 0 -46 -4 -92 -9
-103 -8 -19 -9 -18 -9 4 -1 19 -4 21 -15 12 -12 -10 -15 6 -15 108 -1 102 1
121 14 121 8 0 15 5 15 11 0 6 9 1 19 -12 13 -17 16 -29 10 -41z"/>
<path d="M1253 1665 l1 -35 78 0 78 0 -85 -106 c-53 -66 -85 -115 -85 -130 l0
-24 140 0 140 0 0 35 0 34 -80 3 -79 3 79 100 c55 69 79 109 80 128 l0 27
-134 0 -134 0 1 -35z m206 -26 c-5 -10 -15 -19 -20 -19 -6 0 -8 -7 -5 -16 3
-8 2 -12 -4 -9 -6 3 -10 15 -10 26 0 11 -8 23 -17 26 -14 6 -12 9 12 19 38 15
60 2 44 -27z m-109 -194 c0 -7 8 -19 18 -24 9 -6 13 -11 7 -11 -5 0 -27 -3
-47 -6 -45 -7 -52 14 -15 39 28 20 37 21 37 2z"/>
<path d="M1434 1276 c-11 -28 4 -48 33 -44 22 2 28 8 28 28 0 20 -6 26 -28 28
-18 2 -29 -2 -33 -12z"/>
<path d="M1436 1200 c-1 -3 -3 -47 -4 -97 l-2 -93 30 0 30 0 0 98 0 97 -26 0
c-14 0 -27 -2 -28 -5z"/>
<path d="M1595 1201 c-33 -14 -56 -47 -62 -88 -10 -78 76 -134 151 -98 50 24
73 95 46 146 -21 39 -88 59 -135 40z m65 -41 c26 -14 34 -57 15 -86 -17 -26
-53 -32 -73 -12 -17 17 -15 68 5 90 18 21 27 22 53 8z"/>
<path d="M1323 1073 c-22 -8 -16 -61 7 -68 39 -12 66 35 38 63 -13 13 -24 14
-45 5z"/>
</g>
</svg>
